<?xml version="1.0" encoding="utf-8"?>
<!-- Generator: Adobe Illustrator 16.0.0, SVG Export Plug-In . SVG Version: 6.00 Build 0)  -->
<!DOCTYPE svg PUBLIC "-//W3C//DTD SVG 1.1//EN" "http://www.w3.org/Graphics/SVG/1.1/DTD/svg11.dtd">
<svg version="1.1" xmlns="http://www.w3.org/2000/svg" xmlns:xlink="http://www.w3.org/1999/xlink" x="0px" y="0px" width="100px"
	 height="100px" viewBox="0 0 100 100" enable-background="new 0 0 100 100" xml:space="preserve">
<g id="Слой_2">
	<rect y="-0.053" fill-rule="evenodd" clip-rule="evenodd" fill="#3A88DD" width="100" height="100.053"/>
</g>
<g id="_x31_">
	<path fill-rule="evenodd" clip-rule="evenodd" fill="#FFFFFF" d="M86.904,1.999c-0.413,0-0.768,0.261-1.067,0.786
		c-0.675,1.199-1.293,2.042-1.854,2.528c-1.35,1.199-3.521,2.285-6.518,3.258c-3.296,1.087-5.542,2.06-6.739,2.923
		c-2.324,1.609-3.916,4.062-4.777,7.358l0.173,0.15c2.065,0.448,3.789,1.594,5.138,3.427c1.295,1.755,2.694,3.303,4.183,4.627
		c2.217-2.011,3.848-4.391,4.887-7.137c1.011-2.623,2.022-5.263,3.032-7.921c0.077-0.113,0.977-1.554,2.698-4.327
		c1.235-1.909,1.852-3.388,1.852-4.437C87.913,2.41,87.577,1.999,86.904,1.999L86.904,1.999z M66.859,28.999
		c-0.873,0-1.581-0.708-1.581-1.581c0-0.874,0.708-1.582,1.581-1.582c0.874,0,1.582,0.708,1.582,1.582
		C68.441,28.291,67.733,28.999,66.859,28.999L66.859,28.999z M71.905,32.669c-2.06,1.124-3.091,2.566-3.091,4.327
		c0,0.786,0.3,2.714,0.899,5.785c0.749,3.857,1.124,7.64,1.124,11.347c0,1.349-0.021,2.323-0.057,2.922
		c-0.3,4.793-2.276,9.938-6.468,12.919c-4.577,3.254-6.76,3.727-11.733,5.16c-8.096,2.333-12.976,2.255-13.65,5.064
		c-0.486,3.333-0.993,6.667-1.515,10c-0.974,5.204-2.21,7.808-3.709,7.808c-0.861,0-1.629-0.458-2.303-1.376
		c-0.673-0.918-1.068-1.375-1.179-1.375c-0.188,0-0.646,0.299-1.376,0.897c-0.73,0.601-1.452,0.9-2.163,0.9
		c-0.975,0-1.771-0.722-2.387-2.164c-0.62-1.44-1.096-2.162-1.432-2.162c-0.3,0-0.853,0.187-1.657,0.562
		c-0.806,0.375-1.509,0.561-2.107,0.561c-1.648,0-2.576-0.729-2.781-2.19c-0.207-1.46-0.553-2.189-1.039-2.189
		c-0.336,0-0.824,0.037-1.46,0.112c-0.636,0.075-1.106,0.111-1.404,0.111c-1.499,0-2.247-0.486-2.247-1.459
		c0-0.488,0.224-1.209,0.673-2.165c0.449-0.954,0.674-1.655,0.674-2.105c0-0.375-0.75-0.788-2.247-1.236
		c-1.499-0.45-2.247-1.236-2.247-2.36c0-1.236,0.562-2.059,1.684-2.472c3.26-0.861,6.537-1.722,9.832-2.583
		c3.932-1.086,7.648-2.678,9.446-4.776c1.161-1.348,2.752-3.914,4.774-7.695c2.172-3.97,5.903-7.517,6.09-8.939
		c-4.045-2.099-11.041-2.465-14.188-2.802c-1.272-0.111-2.563-0.225-3.875-0.338c-1.684-0.336-2.526-1.068-2.526-2.19
		c0-0.225,0.037-0.535,0.111-0.926c0.075-0.393,0.112-0.703,0.112-0.928c0-0.786-1.086-1.479-3.258-2.078s-3.257-1.629-3.257-3.09
		c0-0.413,0.13-0.945,0.393-1.602c0.262-0.655,0.393-1.096,0.393-1.319c0-0.6-1.274-1.227-3.818-1.882
		c-2.548-0.656-3.822-1.657-3.822-3.006c0-0.522,0.151-1.264,0.451-2.218c0.3-0.954,0.448-1.675,0.448-2.163
		c0-0.636-0.468-1.311-1.404-2.022c-0.749-0.561-1.499-1.104-2.247-1.629c-1.536-1.536-2.303-4.4-2.303-8.595
		c-0.075-1.161-0.075-2.003,0-2.528c2.66,1.536,5.786,2.642,9.381,3.314c1.873,0.338,6.965,0.694,15.279,1.067
		c1.162,0.039,2.866,0.15,5.113,0.338c9.886,1.461,14.831,5.58,14.831,12.358c0,0.488-0.038,1.199-0.113,2.135
		c-0.075,0.936-0.111,1.647-0.111,2.135c0,3.932,1.272,7.598,3.821,7.598c2.245,0,3.968-3.853,5.168-8.161
		c0.748-3.108,1.497-6.198,2.246-9.269c1.573-3.782,4.364-5.674,8.371-5.674c2.471,0,4.437,0.993,5.897,2.978
		c2.21,2.996,4.682,5.393,7.414,7.19C74.245,31.679,72.429,32.37,71.905,32.669z"/>
	<path fill-rule="evenodd" clip-rule="evenodd" fill="#1B4A1E" d="M84.916,33.558c-3.53,0.528-3.956,4.695-4.713,5.592
		c0.659,0.299,2.081-0.546,3.304-1.998C84.73,35.701,85.322,34.157,84.916,33.558L84.916,33.558z M76.149,32.914
		c0.767,2.855,2.181,5.548,4.451,7.488c2.261,1.932,5.438,3.362,9.872,4.199c-1.377,0.484-1.406,0.336-2.852-0.016
		c-3.595-0.876-6.27-2.189-8.248-3.879c-2.285-1.953-3.642-4.413-4.413-7.286L76.149,32.914L76.149,32.914z M92.29,52.048
		c-3.623-0.956-3.592-5.353-4.278-6.376c0.723-0.236,2.109,0.808,3.22,2.463C92.342,49.79,92.783,51.47,92.29,52.048L92.29,52.048z
		 M86.657,51.653c0.615-0.446,0.581-2.183-0.108-4.052c-0.69-1.87-1.792-3.212-2.551-3.151
		C84.425,45.605,83.359,49.872,86.657,51.653L86.657,51.653z M80.663,49.739c0.68-0.248,1.104-1.846,0.962-3.739
		c-0.142-1.893-0.799-3.41-1.508-3.554C80.204,43.617,78.11,47.244,80.663,49.739L80.663,49.739z M100,43.33
		c-3.565-2.382-7.311,0.979-8.707,1.166c0.344,0.798,2.291,1.195,4.551,0.893C98.104,45.085,99.877,44.19,100,43.33L100,43.33z
		 M92.931,37.781c-3.747,0.003-4.834,4.265-5.758,5.08c0.638,0.412,2.245-0.246,3.74-1.564
		C92.408,39.979,93.261,38.466,92.931,37.781L92.931,37.781z M88.634,35.963c0.38,0.658-0.355,2.23-1.747,3.659
		c-1.39,1.428-2.942,2.206-3.61,1.843C84.136,40.582,84.898,36.25,88.634,35.963z"/>
</g>
</svg>
