<?xml version="1.0" encoding="utf-8"?>
<!-- Generator: Adobe Illustrator 16.0.0, SVG Export Plug-In . SVG Version: 6.00 Build 0)  -->
<!DOCTYPE svg PUBLIC "-//W3C//DTD SVG 1.1//EN" "http://www.w3.org/Graphics/SVG/1.1/DTD/svg11.dtd">
<svg version="1.1" id="_x31_" xmlns="http://www.w3.org/2000/svg" xmlns:xlink="http://www.w3.org/1999/xlink" x="0px" y="0px"
	 width="220px" height="220px" viewBox="0 0 220 220" enable-background="new 0 0 220 220" xml:space="preserve">
<rect y="0" fill-rule="evenodd" clip-rule="evenodd" fill="#50A4EC" width="220" height="220"/>
<path id="XMLID_1_" fill-rule="evenodd" clip-rule="evenodd" fill="#FFFFFF" d="M186.838,11.833c-0.824,0-1.533,0.522-2.131,1.568
	c-1.346,2.393-2.578,4.075-3.699,5.045c-2.691,2.393-7.023,4.559-13.002,6.5c-6.578,2.17-11.061,4.111-13.449,5.833
	c-4.637,3.21-7.813,8.104-9.531,14.681l0.346,0.299c4.121,0.894,7.561,3.18,10.252,6.839c2.586,3.502,5.377,6.589,8.348,9.231
	c4.424-4.011,7.676-8.76,9.75-14.24c2.018-5.234,4.037-10.501,6.053-15.804c0.152-0.226,1.947-3.101,5.383-8.634
	c2.465-3.809,3.695-6.759,3.695-8.853C188.852,12.653,188.18,11.833,186.838,11.833L186.838,11.833z M146.84,65.708
	c-1.74,0-3.152-1.413-3.152-3.154c0-1.744,1.412-3.157,3.152-3.157c1.744,0,3.158,1.413,3.158,3.157
	C149.998,64.295,148.584,65.708,146.84,65.708L146.84,65.708z M156.908,73.032c-4.109,2.243-6.166,5.12-6.166,8.634
	c0,1.568,0.598,5.416,1.795,11.544c1.494,7.695,2.242,15.242,2.242,22.638c0,2.691-0.041,4.637-0.113,5.832
	c-0.598,9.564-4.541,19.83-12.906,25.777c-9.133,6.494-13.488,7.438-23.412,10.297c-16.154,4.656-25.891,4.5-27.238,10.105
	c-0.969,6.648-1.98,13.303-3.023,19.951c-1.943,10.385-4.408,15.578-7.4,15.578c-1.719,0-3.25-0.912-4.596-2.744
	c-1.342-1.83-2.131-2.744-2.354-2.744c-0.375,0-1.289,0.598-2.744,1.791c-1.459,1.195-2.898,1.795-4.316,1.795
	c-1.945,0-3.533-1.439-4.764-4.318c-1.235-2.875-2.186-4.313-2.857-4.313c-0.598,0-1.701,0.373-3.307,1.121
	c-1.607,0.746-3.01,1.119-4.203,1.119c-3.29,0-5.141-1.455-5.55-4.371c-0.412-2.914-1.104-4.369-2.073-4.369
	c-0.672,0-1.646,0.072-2.914,0.223c-1.27,0.15-2.207,0.223-2.803,0.223c-2.991,0-4.482-0.971-4.482-2.912
	c0-0.973,0.445-2.412,1.343-4.318c0.896-1.904,1.345-3.305,1.345-4.201c0-0.748-1.495-1.572-4.483-2.465
	c-2.99-0.898-4.482-2.467-4.482-4.709c0-2.467,1.12-4.107,3.359-4.932c6.504-1.719,13.044-3.438,19.617-5.154
	c7.846-2.168,15.262-5.344,18.848-9.531c2.316-2.689,5.492-7.809,9.527-15.354c4.334-7.922,11.779-14.998,12.152-17.836
	c-8.072-4.188-22.031-4.919-28.313-5.591c-2.538-0.221-5.113-0.447-7.732-0.674c-3.359-0.672-5.041-2.131-5.041-4.369
	c0-0.449,0.073-1.068,0.223-1.848c0.149-0.785,0.223-1.402,0.223-1.852c0-1.568-2.167-2.951-6.5-4.148
	c-4.333-1.195-6.5-3.248-6.5-6.164c0-0.824,0.26-1.887,0.783-3.197c0.523-1.305,0.785-2.185,0.785-2.63
	c0-1.197-2.542-2.449-7.62-3.756c-5.084-1.309-7.626-3.307-7.626-5.998c0-1.043,0.302-2.522,0.9-4.427
	c0.599-1.903,0.894-3.342,0.894-4.316c0-1.269-0.934-2.616-2.801-4.034c-1.495-1.12-2.99-2.203-4.483-3.25
	c-3.064-3.064-4.596-8.78-4.596-17.15c-0.149-2.316-0.149-3.998,0-5.045c5.307,3.064,11.545,5.271,18.719,6.613
	c3.736,0.674,13.898,1.386,30.487,2.13c2.32,0.076,5.721,0.298,10.203,0.674c19.725,2.915,29.592,11.133,29.592,24.658
	c0,0.974-0.076,2.392-0.225,4.26c-0.15,1.867-0.223,3.286-0.223,4.26c0,7.845,2.539,15.162,7.623,15.162
	c4.48,0,7.918-7.688,10.311-16.285c1.492-6.2,2.988-12.365,4.484-18.493c3.137-7.547,8.705-11.322,16.703-11.322
	c4.93,0,8.852,1.981,11.766,5.942c4.41,5.979,9.342,10.76,14.795,14.346C161.578,71.054,157.955,72.434,156.908,73.032z"/>
<path fill-rule="evenodd" clip-rule="evenodd" fill="#415F1F" d="M173.359,85.859c-1.977-5.529,10.164-8.775,11.045-9.535
	c0.611,1.308-1.041,4.164-3.906,6.639C177.631,85.438,174.564,86.655,173.359,85.859L173.359,85.859z M179.232,90.745
	c1.318,0.768,4.484-0.699,7.361-3.484c2.877-2.784,4.451-5.898,3.727-7.242C189.719,80.601,176.896,85.214,179.232,90.745
	L179.232,90.745z M189.707,94.847c-4.537-3.811,5.348-13.587,5.387-13.686c1.232,0.853,1.156,4.155-0.242,7.708
	C193.453,92.421,191.229,94.966,189.707,94.847L189.707,94.847z M194.918,96.321c3.326,6.98,18.049-1.365,18.516-1.4
	c-0.631-1.727-4.689-2.801-9.496-2.438C199.133,92.847,195.281,94.521,194.918,96.321L194.918,96.321z M171.945,91.015
	c6.033,1.303,2.201,13.941,2.393,15.148c-1.508-0.178-3.143-3.236-3.764-7.168S170.566,91.649,171.945,91.015L171.945,91.015z
	 M179.311,95.626c6.543-0.656,7.371,12.949,7.793,13.691c-1.639,0.311-4.416-2.086-6.439-5.641S178.09,96.671,179.311,95.626
	L179.311,95.626z M189.145,98.509c7.25-1.236,9.221,13.884,9.75,14.681c-1.805,0.473-5.09-1.99-7.621-5.8
	C188.742,103.577,187.863,99.769,189.145,98.509L189.145,98.509z M165.377,73.519l-2.373,1.007
	c1.541,5.733,4.246,10.641,8.807,14.539c3.947,3.371,9.285,5.992,16.457,7.74c2.885,0.703,2.941,1,5.691,0.033
	c-8.85-1.67-15.189-4.525-19.699-8.379C169.73,84.589,166.908,79.216,165.377,73.519z"/>
</svg>
