<?xml version="1.0" encoding="utf-8"?>
<!-- Generator: Adobe Illustrator 16.0.0, SVG Export Plug-In . SVG Version: 6.00 Build 0)  -->
<!DOCTYPE svg PUBLIC "-//W3C//DTD SVG 1.1//EN" "http://www.w3.org/Graphics/SVG/1.1/DTD/svg11.dtd">
<svg version="1.1" id="_x31_" xmlns="http://www.w3.org/2000/svg" xmlns:xlink="http://www.w3.org/1999/xlink" x="0px" y="0px"
	 width="200px" height="191.558px" viewBox="0 0 200 191.558" enable-background="new 0 0 200 191.558" xml:space="preserve">
<path fill-rule="evenodd" clip-rule="evenodd" fill="#FFFFFF" d="M173.405,0c-0.824,0-1.533,0.522-2.131,1.568
	c-1.346,2.393-2.578,4.075-3.699,5.045c-2.691,2.393-7.023,4.559-13.002,6.5c-6.578,2.17-11.061,4.111-13.449,5.833
	c-4.637,3.21-7.813,8.104-9.531,14.681l0.346,0.299c4.121,0.894,7.561,3.18,10.252,6.839c2.586,3.502,5.377,6.589,8.348,9.231
	c4.424-4.011,7.676-8.76,9.75-14.24c2.018-5.234,4.037-10.501,6.053-15.804c0.152-0.226,1.947-3.101,5.383-8.634
	c2.465-3.809,3.695-6.759,3.695-8.853C175.419,0.82,174.747,0,173.405,0L173.405,0z M133.407,53.875
	c-1.74,0-3.152-1.413-3.152-3.154c0-1.744,1.412-3.157,3.152-3.157c1.744,0,3.158,1.413,3.158,3.157
	C136.565,52.462,135.151,53.875,133.407,53.875L133.407,53.875z M143.476,61.199c-4.109,2.243-6.166,5.12-6.166,8.634
	c0,1.568,0.598,5.416,1.795,11.544c1.494,7.696,2.242,15.243,2.242,22.639c0,2.691-0.041,4.637-0.113,5.832
	c-0.598,9.564-4.541,19.83-12.906,25.777c-9.133,6.494-13.488,7.438-23.412,10.297c-16.155,4.656-25.891,4.5-27.238,10.105
	c-0.97,6.648-1.981,13.303-3.024,19.951c-1.943,10.385-4.408,15.578-7.4,15.578c-1.719,0-3.25-0.912-4.596-2.744
	c-1.342-1.83-2.131-2.744-2.353-2.744c-0.376,0-1.29,0.598-2.745,1.791c-1.459,1.195-2.898,1.795-4.316,1.795
	c-1.945,0-3.533-1.439-4.763-4.318c-1.236-2.875-2.186-4.313-2.858-4.313c-0.598,0-1.701,0.373-3.307,1.121
	c-1.608,0.746-3.01,1.119-4.204,1.119c-3.29,0-5.141-1.455-5.549-4.371c-0.412-2.914-1.104-4.369-2.073-4.369
	c-0.672,0-1.646,0.072-2.914,0.223c-1.27,0.15-2.208,0.223-2.802,0.223c-2.991,0-4.483-0.971-4.483-2.912
	c0-0.973,0.445-2.412,1.343-4.318c0.896-1.904,1.345-3.305,1.345-4.201c0-0.748-1.495-1.572-4.483-2.465
	c-2.99-0.898-4.482-2.467-4.482-4.709c0-2.467,1.12-4.107,3.359-4.932c6.504-1.719,13.044-3.438,19.617-5.154
	c7.845-2.168,15.261-5.344,18.847-9.531c2.316-2.689,5.492-7.809,9.527-15.354c4.334-7.922,11.779-14.998,12.152-17.836
	c-8.072-4.188-22.031-4.92-28.312-5.592c-2.539-0.221-5.114-0.447-7.733-0.674c-3.36-0.672-5.041-2.13-5.041-4.37
	c0-0.448,0.073-1.067,0.223-1.848c0.149-0.784,0.222-1.402,0.222-1.852c0-1.567-2.167-2.95-6.5-4.147
	c-4.333-1.195-6.5-3.249-6.5-6.164c0-0.824,0.259-1.887,0.784-3.197c0.522-1.306,0.785-2.186,0.785-2.631
	c0-1.197-2.542-2.449-7.62-3.756c-5.084-1.309-7.626-3.307-7.626-5.998c0-1.043,0.302-2.522,0.9-4.427
	c0.599-1.903,0.894-3.342,0.894-4.316c0-1.269-0.934-2.616-2.801-4.034c-1.495-1.12-2.99-2.203-4.483-3.25
	c-3.064-3.064-4.596-8.78-4.596-17.15c-0.149-2.316-0.149-3.998,0-5.045c5.307,3.064,11.545,5.271,18.719,6.613
	c3.736,0.674,13.898,1.386,30.487,2.13c2.319,0.076,5.72,0.298,10.202,0.674c19.726,2.915,29.592,11.133,29.592,24.658
	c0,0.974-0.076,2.392-0.225,4.26c-0.15,1.867-0.223,3.286-0.223,4.26c0,7.846,2.539,15.161,7.623,15.161
	c4.481,0,7.918-7.687,10.311-16.284c1.492-6.2,2.988-12.365,4.484-18.493c3.137-7.547,8.705-11.322,16.703-11.322
	c4.93,0,8.852,1.981,11.766,5.942c4.41,5.979,9.342,10.76,14.795,14.346C148.146,59.221,144.522,60.601,143.476,61.199z"/>
<path fill-rule="evenodd" clip-rule="evenodd" fill="#415F1F" d="M159.927,74.026c-1.977-5.529,10.164-8.775,11.045-9.535
	c0.611,1.308-1.041,4.164-3.906,6.639C164.198,73.605,161.132,74.823,159.927,74.026L159.927,74.026z M165.8,78.913
	c1.318,0.768,4.484-0.7,7.361-3.484s4.451-5.898,3.727-7.242C176.286,68.768,163.464,73.381,165.8,78.913L165.8,78.913z
	 M176.274,83.014c-4.537-3.811,5.348-13.588,5.387-13.687c1.232,0.853,1.156,4.155-0.242,7.708S177.796,83.133,176.274,83.014
	L176.274,83.014z M181.485,84.489c3.326,6.979,18.049-1.365,18.516-1.4c-0.631-1.727-4.689-2.801-9.496-2.438
	C185.7,81.014,181.849,82.687,181.485,84.489L181.485,84.489z M158.513,79.182c6.033,1.302,2.201,13.941,2.393,15.148
	c-1.508-0.178-3.143-3.236-3.764-7.168C156.521,83.23,157.134,79.817,158.513,79.182L158.513,79.182z M165.878,83.793
	c6.543-0.657,7.371,12.949,7.793,13.691c-1.639,0.311-4.416-2.086-6.439-5.64C165.208,88.29,164.657,84.838,165.878,83.793
	L165.878,83.793z M175.712,86.676c7.25-1.237,9.221,13.884,9.75,14.681c-1.805,0.473-5.09-1.99-7.621-5.8
	C175.31,91.745,174.431,87.935,175.712,86.676L175.712,86.676z M151.944,61.686l-2.373,1.007c1.541,5.733,4.246,10.641,8.807,14.54
	c3.947,3.371,9.285,5.992,16.457,7.74c2.885,0.703,2.941,0.999,5.691,0.032c-8.85-1.67-15.189-4.524-19.699-8.378
	C156.298,72.756,153.476,67.383,151.944,61.686z"/>
</svg>
