<?xml version="1.0" encoding="utf-8"?>
<!-- Generator: Adobe Illustrator 16.0.0, SVG Export Plug-In . SVG Version: 6.00 Build 0)  -->
<!DOCTYPE svg PUBLIC "-//W3C//DTD SVG 1.1//EN" "http://www.w3.org/Graphics/SVG/1.1/DTD/svg11.dtd">
<svg version="1.1" id="Слой_1" xmlns="http://www.w3.org/2000/svg" xmlns:xlink="http://www.w3.org/1999/xlink" x="0px" y="0px"
	 width="300px" height="327.601px" viewBox="0 0 300 327.601" enable-background="new 0 0 300 327.601" xml:space="preserve">
<g>
	<path fill="#FFFFFF" d="M296.555,0c-1.409,0-2.619,0.892-3.642,2.684c-2.303,4.091-4.412,6.967-6.328,8.626
		c-4.603,4.091-12.012,7.797-22.236,11.117c-11.25,3.71-18.914,7.03-23.001,9.974c-7.928,5.49-13.362,13.86-16.301,25.108
		l0.592,0.512c7.049,1.527,12.929,5.438,17.534,11.695c4.421,5.991,9.193,11.27,14.276,15.788
		c7.564-6.86,13.128-14.981,16.673-24.353c3.451-8.95,6.905-17.958,10.351-27.029c0.261-0.385,3.331-5.301,9.205-14.764
		C297.896,12.844,300,7.797,300,4.217C300,1.403,298.852,0,296.555,0z"/>
	<path fill="#FFFFFF" d="M245.37,104.663c1.793-1.024,7.986-3.382,18.592-7.093c-9.328-6.132-17.76-14.31-25.301-24.535
		c-4.986-6.775-11.692-10.162-20.127-10.162c-13.673,0-23.197,6.457-28.564,19.362c-2.558,10.479-5.112,21.023-7.664,31.627
		c-4.093,14.703-9.976,27.848-17.637,27.848c-8.695,0-13.037-12.51-13.037-25.928c0-1.664,0.125-4.091,0.38-7.285
		c0.256-3.195,0.387-5.621,0.387-7.286c0-23.131-16.872-37.185-50.609-42.169c-7.666-0.642-13.481-1.022-17.446-1.153
		c-28.373-1.272-45.751-2.49-52.14-3.643c-12.27-2.297-22.937-6.07-32.013-11.31c-0.255,1.79-0.255,4.666,0,8.626
		c0,14.315,2.619,24.09,7.859,29.332c2.553,1.79,5.111,3.643,7.668,5.558c3.192,2.427,4.79,4.729,4.79,6.899
		c0,1.666-0.505,4.126-1.528,7.383c-1.024,3.256-1.541,5.786-1.541,7.57c0,4.603,4.348,8.019,13.043,10.258
		c8.684,2.234,13.033,4.375,13.033,6.422c0,0.76-0.45,2.268-1.343,4.5c-0.898,2.24-1.34,4.059-1.34,5.468
		c0,4.983,3.706,8.496,11.117,10.542s11.117,4.411,11.117,7.093c0,0.766-0.125,1.824-0.381,3.166
		c-0.256,1.334-0.381,2.392-0.381,3.16c0,3.83,2.875,6.325,8.621,7.473c4.479,0.388,8.883,0.774,13.225,1.154
		c10.742,1.148,34.613,2.398,48.419,9.559c-0.637,4.854-13.373,16.957-20.783,30.507c-6.899,12.899-12.333,21.656-16.293,26.256
		c-6.132,7.16-18.816,12.595-32.232,16.298c-11.241,2.938-22.427,5.877-33.549,8.815c-3.831,1.409-5.745,4.219-5.745,8.435
		c0,3.838,2.552,6.519,7.666,8.054c5.111,1.529,7.668,2.938,7.668,4.216c0,1.535-0.769,3.929-2.301,7.184
		c-1.535,3.264-2.297,5.725-2.297,7.389c0,3.319,2.55,4.978,7.666,4.978c1.018,0,2.621-0.123,4.792-0.378
		c2.171-0.258,3.836-0.384,4.985-0.384c1.66,0,2.84,2.49,3.546,7.474c0.699,4.986,3.864,7.474,9.491,7.474
		c2.041,0,4.438-0.636,7.188-1.913c2.747-1.28,4.633-1.916,5.656-1.916c1.148,0,2.773,2.461,4.888,7.377
		c2.102,4.922,4.818,7.383,8.143,7.383c2.427,0,4.888-1.022,7.383-3.07c2.489-2.039,4.052-3.064,4.695-3.064
		c0.379,0,1.727,1.564,4.024,4.696c2.301,3.132,4.92,4.693,7.859,4.693c5.115,0,9.333-8.883,12.656-26.643
		c1.784-11.373,3.513-22.749,5.172-34.122c2.303-9.586,18.953-9.316,46.58-17.279c16.972-4.893,24.419-6.504,40.04-17.61
		c14.306-10.169,21.05-27.727,22.072-44.083c0.126-2.048,0.193-5.373,0.193-9.976c0-12.648-1.28-25.555-3.835-38.717
		c-2.048-10.481-3.07-17.063-3.07-19.745C234.823,113.421,238.342,108.499,245.37,104.663z M228.152,92.137
		c-2.979,0-5.394-2.416-5.394-5.394c0-2.984,2.414-5.399,5.394-5.399c2.982,0,5.399,2.416,5.399,5.399
		C233.552,89.721,231.135,92.137,228.152,92.137z"/>
</g>
</svg>
