<?xml version="1.0" encoding="utf-8"?>
<!-- Generator: Adobe Illustrator 16.0.0, SVG Export Plug-In . SVG Version: 6.00 Build 0)  -->
<!DOCTYPE svg PUBLIC "-//W3C//DTD SVG 1.1//EN" "http://www.w3.org/Graphics/SVG/1.1/DTD/svg11.dtd">
<svg version="1.1" id="Слой_1" xmlns="http://www.w3.org/2000/svg" xmlns:xlink="http://www.w3.org/1999/xlink" x="0px" y="0px"
	 width="100px" height="96px" viewBox="0 0 100 96" enable-background="new 0 0 100 96" xml:space="preserve">
<path fill-rule="evenodd" clip-rule="evenodd" fill="#FFFFFF" d="M86.904,0c-0.414,0-0.768,0.261-1.068,0.786
	c-0.674,1.199-1.293,2.042-1.854,2.528c-1.35,1.199-3.52,2.285-6.518,3.258c-3.295,1.087-5.541,2.06-6.738,2.923
	c-2.324,1.609-3.916,4.062-4.777,7.358l0.174,0.15c2.064,0.448,3.789,1.594,5.139,3.427c1.295,1.755,2.693,3.303,4.182,4.627
	c2.217-2.01,3.848-4.391,4.887-7.137c1.012-2.623,2.023-5.263,3.033-7.921c0.076-0.113,0.977-1.554,2.697-4.327
	c1.236-1.909,1.852-3.388,1.852-4.437C87.912,0.411,87.576,0,86.904,0L86.904,0z M66.859,27c-0.873,0-1.58-0.708-1.58-1.581
	c0-0.874,0.707-1.582,1.58-1.582s1.582,0.708,1.582,1.582C68.441,26.292,67.732,27,66.859,27L66.859,27z M71.904,30.67
	c-2.059,1.124-3.09,2.566-3.09,4.327c0,0.786,0.299,2.714,0.898,5.785c0.75,3.857,1.125,7.64,1.125,11.347
	c0,1.348-0.021,2.322-0.057,2.922c-0.301,4.793-2.275,9.938-6.469,12.918c-4.577,3.256-6.76,3.727-11.733,5.16
	c-8.096,2.334-12.976,2.256-13.65,5.064c-0.486,3.332-0.993,6.668-1.515,10C36.439,93.397,35.204,96,33.705,96
	c-0.861,0-1.629-0.457-2.303-1.375c-0.673-0.918-1.068-1.375-1.179-1.375c-0.188,0-0.646,0.299-1.376,0.896
	c-0.73,0.6-1.452,0.9-2.163,0.9c-0.975,0-1.771-0.723-2.387-2.164c-0.62-1.441-1.096-2.162-1.432-2.162
	c-0.3,0-0.853,0.188-1.657,0.563c-0.806,0.373-1.509,0.561-2.107,0.561c-1.648,0-2.576-0.73-2.781-2.191
	c-0.207-1.459-0.553-2.189-1.039-2.189c-0.336,0-0.824,0.037-1.46,0.113c-0.636,0.074-1.106,0.111-1.404,0.111
	c-1.499,0-2.247-0.486-2.247-1.459c0-0.488,0.224-1.211,0.673-2.166c0.449-0.953,0.674-1.654,0.674-2.105
	c0-0.375-0.75-0.787-2.247-1.234c-1.499-0.451-2.247-1.236-2.247-2.361c0-1.234,0.562-2.059,1.684-2.471
	c3.26-0.861,6.537-1.723,9.832-2.584c3.932-1.086,7.648-2.678,9.446-4.775c1.161-1.348,2.752-3.914,4.774-7.695
	c2.172-3.971,5.903-7.518,6.09-8.939c-4.045-2.098-11.041-2.465-14.188-2.801c-1.272-0.111-2.563-0.225-3.875-0.338
	c-1.684-0.336-2.526-1.067-2.526-2.189c0-0.225,0.037-0.535,0.111-0.926c0.075-0.393,0.112-0.703,0.112-0.928
	c0-0.786-1.086-1.479-3.258-2.078s-3.257-1.629-3.257-3.09c0-0.413,0.13-0.945,0.393-1.602c0.262-0.655,0.393-1.096,0.393-1.319
	c0-0.6-1.274-1.227-3.818-1.882c-2.548-0.656-3.822-1.657-3.822-3.006c0-0.522,0.151-1.264,0.451-2.218
	c0.3-0.954,0.448-1.675,0.448-2.163c0-0.636-0.468-1.311-1.404-2.022c-0.749-0.561-1.499-1.104-2.247-1.629
	c-1.536-1.536-2.303-4.4-2.303-8.595c-0.075-1.161-0.075-2.003,0-2.528c2.66,1.536,5.786,2.642,9.381,3.314
	c1.873,0.338,6.965,0.694,15.279,1.067c1.162,0.039,2.866,0.15,5.113,0.338c9.886,1.461,14.831,5.58,14.831,12.358
	c0,0.488-0.038,1.199-0.113,2.135c-0.075,0.936-0.111,1.647-0.111,2.135c0,3.932,1.272,7.598,3.821,7.598
	c2.245,0,3.969-3.853,5.168-8.161c0.748-3.108,1.497-6.198,2.246-9.269c1.572-3.782,4.363-5.674,8.371-5.674
	c2.471,0,4.438,0.993,5.896,2.978c2.211,2.996,4.682,5.393,7.414,7.19C74.244,29.68,72.43,30.371,71.904,30.67z"/>
<path fill-rule="evenodd" clip-rule="evenodd" fill="#9CB03B" d="M84.916,31.559c-3.531,0.528-3.957,4.695-4.713,5.592
	c0.658,0.299,2.08-0.546,3.303-1.998C84.73,33.702,85.322,32.158,84.916,31.559L84.916,31.559z M76.148,30.915
	c0.768,2.855,2.182,5.548,4.451,7.488c2.262,1.932,5.438,3.362,9.873,4.199c-1.377,0.484-1.406,0.336-2.852-0.016
	c-3.596-0.876-6.27-2.189-8.248-3.879c-2.285-1.953-3.643-4.413-4.414-7.286L76.148,30.915L76.148,30.915z M92.289,50.049
	c-3.623-0.957-3.592-5.353-4.277-6.376c0.723-0.236,2.109,0.808,3.219,2.463C92.342,47.792,92.783,49.469,92.289,50.049
	L92.289,50.049z M86.656,49.653c0.615-0.445,0.582-2.182-0.107-4.051c-0.691-1.87-1.793-3.212-2.551-3.151
	C84.426,43.606,83.359,47.873,86.656,49.653L86.656,49.653z M80.662,47.74c0.68-0.247,1.105-1.846,0.963-3.739
	s-0.799-3.41-1.508-3.554C80.203,41.618,78.109,45.245,80.662,47.74L80.662,47.74z M100,41.331
	c-3.566-2.382-7.311,0.979-8.707,1.166c0.344,0.798,2.291,1.195,4.551,0.893S99.877,42.191,100,41.331L100,41.331z M92.932,35.782
	c-3.748,0.003-4.834,4.265-5.758,5.08c0.637,0.412,2.244-0.246,3.74-1.564C92.408,37.979,93.262,36.467,92.932,35.782L92.932,35.782
	z M88.635,33.964c0.379,0.658-0.355,2.23-1.748,3.659c-1.389,1.428-2.941,2.206-3.609,1.843
	C84.137,38.583,84.898,34.251,88.635,33.964z"/>
</svg>
