<?xml version="1.0" encoding="utf-8"?>
<!-- Generator: Adobe Illustrator 24.3.0, SVG Export Plug-In . SVG Version: 6.00 Build 0)  -->
<svg version="1.1" id="_x31_" xmlns="http://www.w3.org/2000/svg" xmlns:xlink="http://www.w3.org/1999/xlink" x="0px" y="0px"
	 viewBox="0 0 50 50" style="enable-background:new 0 0 50 50;" xml:space="preserve">
<style type="text/css">
	.st0{opacity:0.3;fill:#C5E6FF;enable-background:new    ;}
	.st1{fill:#FFFFFF;}
</style>
<path class="st0" d="M25,0c13.8,0,25,11.2,25,25S38.8,50,25,50S0,38.8,0,25S11.2,0,25,0L25,0z M25,2.5C12.6,2.5,2.5,12.6,2.5,25
	c0,12.4,10.1,22.5,22.5,22.5c12.4,0,22.5-10.1,22.5-22.5C47.5,12.6,37.4,2.5,25,2.5z"/>
<path class="st1" d="M25,0c13.8,0,25,11.2,25,25h-2.5C47.5,12.6,37.4,2.5,25,2.5V0z"/>
</svg>
